<?xml version="1.0" encoding="UTF-8" standalone="no"?>
<!-- Created with Inkscape (http://www.inkscape.org/) -->
<svg
   xmlns:dc="http://purl.org/dc/elements/1.1/"
   xmlns:cc="http://web.resource.org/cc/"
   xmlns:rdf="http://www.w3.org/1999/02/22-rdf-syntax-ns#"
   xmlns:svg="http://www.w3.org/2000/svg"
   xmlns="http://www.w3.org/2000/svg"
   xmlns:xlink="http://www.w3.org/1999/xlink"
   xmlns:sodipodi="http://inkscape.sourceforge.net/DTD/sodipodi-0.dtd"
   xmlns:inkscape="http://www.inkscape.org/namespaces/inkscape"
   id="svg2"
   sodipodi:version="0.32"
   inkscape:version="0.32"
   width="744.09448"
   height="830.00000"
   sodipodi:docbase="D:\xampp\htdocs\wiki\Bilder\Wappenwerkstatt"
   sodipodi:docname="Wappen_Amsterdam.svg"
   version="1.0"
   x="0.00000000"
   y="0.00000000">
  <metadata
     id="metadata7">
    <rdf:RDF>
      <cc:Work
         rdf:about="">
        <dc:format>image/svg+xml</dc:format>
        <dc:type
           rdf:resource="http://purl.org/dc/dcmitype/StillImage" />
      </cc:Work>
    </rdf:RDF>
  </metadata>
  <defs
     id="defs5" />
  <sodipodi:namedview
     inkscape:window-height="744"
     inkscape:window-width="1280"
     inkscape:pageshadow="2"
     inkscape:pageopacity="0.0"
     borderopacity="1.0"
     bordercolor="#666666"
     pagecolor="#ffffff"
     id="base"
     inkscape:zoom="0.53521193"
     inkscape:cx="626.15646"
     inkscape:cy="449.41774"
     inkscape:window-x="-4"
     inkscape:window-y="-4"
     inkscape:current-layer="svg2" />
  <path
     style="fill:#ff0000;fill-opacity:1.0000000;fill-rule:evenodd;stroke:#000000;stroke-width:6.0000000;stroke-linecap:butt;stroke-linejoin:miter;stroke-miterlimit:4.0000000;stroke-dasharray:none;stroke-opacity:1.0000000"
     d="M 3.9635148,11.278990 C 3.9635148,11.278990 6.6058574,304.90937 3.9635148,508.03950 C 7.9270304,688.70971 190.89665,822.80855 363.32219,823.79950 C 535.73508,824.79038 737.87432,704.89406 741.17725,512.00301 C 741.83783,290.04619 741.17725,11.278990 741.17725,11.278990 L 3.9635148,11.278990 z "
     id="path1307"
     sodipodi:nodetypes="cczccc" />
  <path
     style="fill:#000000;fill-opacity:1.0000000;fill-rule:evenodd;stroke:#000000;stroke-width:1.0000000px;stroke-linecap:butt;stroke-linejoin:miter;stroke-opacity:1.0000000"
     d="M 240.45323,12.600162 L 507.32989,13.921333 C 507.32989,13.921333 509.64194,604.13648 507.32989,799.33958 C 404.60880,829.39623 336.23817,831.72653 244.41675,801.33958 C 241.11382,604.48502 240.45323,12.600162 240.45323,12.600162 z "
     id="path1309"
     sodipodi:nodetypes="ccccc" />
  <path
     style="fill:#ffffff;fill-opacity:1.0000000;fill-rule:evenodd;stroke:#000000;stroke-width:0.99999964px;stroke-linecap:butt;stroke-linejoin:miter;stroke-opacity:1.0000000"
     d="M 311.65169,248.91310 L 375.78142,184.91076 L 439.46878,248.72489 L 471.54662,216.71077 L 407.85926,152.89664 L 467.04021,93.833255 L 435.04807,61.777442 L 375.86712,120.84083 L 315.83525,60.689478 L 283.75741,92.703598 L 343.78928,152.85495 L 279.65955,216.85729 L 311.65169,248.91310 z "
     id="path1311"
     sodipodi:nodetypes="ccccccccccccc" />
  <use
     x="0.00000000"
     y="0.00000000"
     xlink:href="#path1311"
     id="use1313"
     transform="translate(0.660586,264.2343)"
     width="744.09448"
     height="1052.3622" />
  <use
     x="0.00000000"
     y="0.00000000"
     xlink:href="#path1311"
     id="use1315"
     transform="translate(1.321172,528.4686)"
     width="744.09448"
     height="1052.3622" />
</svg>
